{"title":"Monk.Comes.Down.the.Mountain.2015.BRRip.480p.x264.AAC-VYTO [P2PD","uid":13894526,"size":427088374,"categoryP":"video","categoryS":"movies","magnet":"?xt=urn:btih:d7dd1bf193874abe999b0317b9fe333ab479d16a&amp;dn=Monk.Comes.Down.the.Mountain.2015.BRRip.480p.x264.AAC-VYTO+%5BP2PD&amp;tr=udp%3A%2F%2Ftracker.leechers-paradise.org%3A6969&amp;tr=udp%3A%2F%2Fzer0day.ch%3A1337&amp;tr=udp%3A%2F%2Fopen.demonii.com%3A1337&amp;tr=udp%3A%2F%2Ftracker.coppersurfer.tk%3A6969&amp;tr=udp%3A%2F%2Fexodus.desync.com%3A6969","seeders":1,"leechers":0,"uploader":"VYTOP2PDL","files":7,"time":1458233774,"description":"____    ____ ____    ____ .___________.  ______   \r\n     /   /      /   / |           | /  __    \r\n    /   /      /   /  `---|  |----`|  |  |  | \r\n        /     _    _/       |  |     |  |  |  | \r\n       /        |  |         |  |     |  `--'  | \r\n    __/         |__|         |__|      ______/  \r\n                                                  \r\nPresenting Small Encodes with quality for years!\r\n                                                                                                   \r\n                                                                                                   \r\n\r\n\r\nMonk.Comes.Down.the.Mountain.2015.BRRip.480p.x264.AAC-VYTO\r\n\r\n\r\nGenre: Action, History \nhttp://www.imdb.com/title/tt3594826/\r\n\r\n\r\nFormat                                   : MPEG-4\r\nFile size                                : 402 MiB\r\nDuration                                 : 1h 53mn\r\nOverall bit rate                         : 493 Kbps\r\n\r\nVideo\r\nFormat                                   : AVC\r\nBit rate                                 : 458 Kbps\r\nWidth                                    : 720 pixels\r\nHeight                                   : 304 pixels\r\nDisplay aspect ratio                     : 2.35:1\r\nFrame rate mode                          : Constant\r\nFrame rate                               : 23.976 (24000/1001) fps\r\nBit depth                                : 8 bits\r\nStream size                              : 373 MiB (93%)\r\nWriting library                          : x264\r\n\r\nAudio\r\nFormat                                   : AAC\r\nBit rate mode                            : Variable\r\nBit rate                                 : 32.0 Kbps\r\nChannel(s)                               : 2 channels \r\nChannel positions                        : Front: L R \r\nSampling rate                            : 48.0 KHz \r\nStream size                              : 26.1 MiB (6%)\r\nLanguage                                 : Chinese\r\n\r\nSubtitle                                 : Yes (English)\r\n\r\nScreen Shot: (Click to view)\r\n \nhttp://ititli.com/XkG \nhttp://ititli.com/XkH \nhttp://ititli.com/XkM \nhttp://ititli.com/XkU \nhttp://ititli.com/Xkh \nhttp://ititli.com/Xks \nhttp://ititli.com/XkY \nhttp://ititli.com/Xk4 \nhttp://ititli.com/XkK \nhttp://ititli.com/XkV \nhttp://ititli.com/Xkt \nhttp://ititli.com/XkL\r\n\r\n----------------------------------------------------------------------------------------------------\r\n\r\n\r\nEncoder Notes: Looking For Early Access To Anything You Can Provide WEBDL, DVDScr, DVDR, BluRay,\r\nDirect Audio, Music Releases and Seedboxes. If You Got anything to offer please contact us.\r\n\r\nSupport us by donating BC - 1FgwdzPsd1y25Gea8wP1qni35uGCtmkRCD\r\n\r\n\r\nFind us and join us!","torrent":{"xt":"urn:btih:d7dd1bf193874abe999b0317b9fe333ab479d16a","amp;dn":"Monk.Comes.Down.the.Mountain.2015.BRRip.480p.x264.AAC-VYTO+%5BP2PD","amp;tr":["udp%3A%2F%2Ftracker.leechers-paradise.org%3A6969","udp%3A%2F%2Fzer0day.ch%3A1337","udp%3A%2F%2Fopen.demonii.com%3A1337","udp%3A%2F%2Ftracker.coppersurfer.tk%3A6969","udp%3A%2F%2Fexodus.desync.com%3A6969"],"infoHash":"d7dd1bf193874abe999b0317b9fe333ab479d16a","infoHashBuffer":{"type":"Buffer","data":[215,221,27,241,147,135,74,190,153,155,3,23,185,254,51,58,180,121,209,106]},"announce":[],"urlList":[]}}